<mxfile host="app.diagrams.net" modified="2023-08-16T18:33:34.415Z" agent="Mozilla/5.0 (Windows NT 10.0; Win64; x64) AppleWebKit/537.36 (KHTML, like Gecko) Chrome/115.0.0.0 Safari/537.36" etag="kbe55unkcf77yHG2o5ck" version="21.6.8" type="google">
  <diagram name="Page-1" id="JJFV0UlJ_yxca4ZNqKTl">
    <mxGraphModel grid="1" page="1" gridSize="10" guides="1" tooltips="1" connect="1" arrows="1" fold="1" pageScale="1" pageWidth="5000" pageHeight="5500" math="0" shadow="0">
      <root>
        <mxCell id="0" />
        <mxCell id="1" parent="0" />
        <mxCell id="GZrYSdIEslRuvR0rswN7-1" value="Get the user to enter strings that follows certain criteria" style="rounded=0;whiteSpace=wrap;html=1;" vertex="1" parent="1">
          <mxGeometry x="455.08000000000004" width="120" height="60" as="geometry" />
        </mxCell>
        <mxCell id="GZrYSdIEslRuvR0rswN7-2" value="" style="endArrow=classic;html=1;rounded=0;" edge="1" parent="1" source="GZrYSdIEslRuvR0rswN7-1">
          <mxGeometry width="50" height="50" relative="1" as="geometry">
            <mxPoint x="515.08" y="110" as="sourcePoint" />
            <mxPoint x="515.08" y="200" as="targetPoint" />
          </mxGeometry>
        </mxCell>
        <mxCell id="GZrYSdIEslRuvR0rswN7-3" value="" style="endArrow=classic;html=1;rounded=0;" edge="1" parent="1">
          <mxGeometry width="50" height="50" relative="1" as="geometry">
            <mxPoint x="515.08" y="130" as="sourcePoint" />
            <mxPoint x="760" y="130" as="targetPoint" />
          </mxGeometry>
        </mxCell>
        <mxCell id="GZrYSdIEslRuvR0rswN7-4" value="" style="endArrow=classic;html=1;rounded=0;" edge="1" parent="1">
          <mxGeometry width="50" height="50" relative="1" as="geometry">
            <mxPoint x="515.08" y="130" as="sourcePoint" />
            <mxPoint x="230.00061941964287" y="130" as="targetPoint" />
          </mxGeometry>
        </mxCell>
        <mxCell id="GZrYSdIEslRuvR0rswN7-5" value="processing" style="rounded=0;whiteSpace=wrap;html=1;" vertex="1" parent="1">
          <mxGeometry x="455" y="200" width="120" height="60" as="geometry" />
        </mxCell>
        <mxCell id="GZrYSdIEslRuvR0rswN7-6" value="" style="endArrow=classic;html=1;rounded=0;" edge="1" parent="1">
          <mxGeometry width="50" height="50" relative="1" as="geometry">
            <mxPoint x="230" y="130" as="sourcePoint" />
            <mxPoint x="230" y="190" as="targetPoint" />
          </mxGeometry>
        </mxCell>
        <mxCell id="GZrYSdIEslRuvR0rswN7-7" value="Input" style="rounded=0;whiteSpace=wrap;html=1;" vertex="1" parent="1">
          <mxGeometry x="170" y="190" width="120" height="60" as="geometry" />
        </mxCell>
        <mxCell id="GZrYSdIEslRuvR0rswN7-8" value="" style="endArrow=classic;html=1;rounded=0;" edge="1" parent="1">
          <mxGeometry width="50" height="50" relative="1" as="geometry">
            <mxPoint x="760" y="130" as="sourcePoint" />
            <mxPoint x="760" y="200" as="targetPoint" />
          </mxGeometry>
        </mxCell>
        <mxCell id="GZrYSdIEslRuvR0rswN7-9" value="Output" style="rounded=0;whiteSpace=wrap;html=1;" vertex="1" parent="1">
          <mxGeometry x="700" y="200" width="120" height="60" as="geometry" />
        </mxCell>
        <mxCell id="GZrYSdIEslRuvR0rswN7-10" value="" style="endArrow=classic;html=1;rounded=0;" edge="1" parent="1" source="GZrYSdIEslRuvR0rswN7-7">
          <mxGeometry width="50" height="50" relative="1" as="geometry">
            <mxPoint x="230" y="300" as="sourcePoint" />
            <mxPoint x="230" y="320.71067811865476" as="targetPoint" />
          </mxGeometry>
        </mxCell>
        <mxCell id="GZrYSdIEslRuvR0rswN7-11" value="The user inputs a string in to the program" style="rounded=0;whiteSpace=wrap;html=1;" vertex="1" parent="1">
          <mxGeometry x="170" y="320" width="120" height="60" as="geometry" />
        </mxCell>
        <mxCell id="GZrYSdIEslRuvR0rswN7-12" value="" style="endArrow=classic;html=1;rounded=0;" edge="1" parent="1" source="GZrYSdIEslRuvR0rswN7-5">
          <mxGeometry width="50" height="50" relative="1" as="geometry">
            <mxPoint x="515" y="310" as="sourcePoint" />
            <mxPoint x="515" y="330.71067811865476" as="targetPoint" />
          </mxGeometry>
        </mxCell>
        <mxCell id="GZrYSdIEslRuvR0rswN7-13" value="The program checks if the string meets the criteria" style="rounded=0;whiteSpace=wrap;html=1;" vertex="1" parent="1">
          <mxGeometry x="455" y="330" width="120" height="60" as="geometry" />
        </mxCell>
        <mxCell id="GZrYSdIEslRuvR0rswN7-16" value="" style="endArrow=classic;html=1;rounded=0;" edge="1" parent="1" source="GZrYSdIEslRuvR0rswN7-9">
          <mxGeometry width="50" height="50" relative="1" as="geometry">
            <mxPoint x="760" y="310" as="sourcePoint" />
            <mxPoint x="760" y="330.71067811865476" as="targetPoint" />
          </mxGeometry>
        </mxCell>
        <mxCell id="GZrYSdIEslRuvR0rswN7-17" value="Display a well done message if the string meets the criteria and a message to retry if it doesn&#39;t" style="rounded=0;whiteSpace=wrap;html=1;" vertex="1" parent="1">
          <mxGeometry x="700" y="330" width="120" height="100" as="geometry" />
        </mxCell>
        <mxCell id="GZrYSdIEslRuvR0rswN7-18" value="If it passed then display the next string requirements, else repeat the old requirements" style="rounded=0;whiteSpace=wrap;html=1;" vertex="1" parent="1">
          <mxGeometry x="700" y="500" width="120" height="90" as="geometry" />
        </mxCell>
        <mxCell id="GZrYSdIEslRuvR0rswN7-19" value="" style="endArrow=classic;html=1;rounded=0;" edge="1" parent="1" source="GZrYSdIEslRuvR0rswN7-17">
          <mxGeometry width="50" height="50" relative="1" as="geometry">
            <mxPoint x="760" y="480" as="sourcePoint" />
            <mxPoint x="760" y="500.71067811865476" as="targetPoint" />
          </mxGeometry>
        </mxCell>
      </root>
    </mxGraphModel>
  </diagram>
</mxfile>
